<?xml version="1.0" encoding="UTF-8"?>
<svg version="1.1" xmlns="http://www.w3.org/2000/svg" width="1472" height="832">
<path d="M0 0 C485.76 0 971.52 0 1472 0 C1472 274.56 1472 549.12 1472 832 C986.24 832 500.48 832 0 832 C0 557.44 0 282.88 0 0 Z " fill="#222D48" transform="translate(0,0)"/>
<path d="M0 0 C2.77779452 0.00908073 5.55558181 0.01057602 8.33338928 0.01246643 C15.03948341 0.02165674 21.74516642 0.05761406 28.45109934 0.1035437 C36.24748321 0.15617559 44.04389823 0.18419345 51.84040487 0.21151197 C64.73311695 0.25749315 77.62562787 0.3232009 90.51817477 0.40248454 C105.48015232 0.49435333 120.44171164 0.54904526 135.40395355 0.56913757 C146.99574718 0.58478552 158.58739435 0.61708134 170.17910004 0.66516113 C171.55972787 0.67082571 172.94035582 0.67646144 174.32098389 0.68206787 C174.99899803 0.68482208 175.67701218 0.68757628 176.3755722 0.69041395 C181.11182231 0.70852026 185.84800793 0.71524775 190.58428955 0.71734619 C196.9510964 0.72148942 203.31735548 0.74987924 209.68398857 0.79649162 C211.99582164 0.80950197 214.30771987 0.81426228 216.61958504 0.80969429 C230.3815604 0.78821563 243.73322453 1.23770602 256.3046875 7.5234375 C256.3046875 8.1834375 256.3046875 8.8434375 256.3046875 9.5234375 C256.9853125 9.7296875 257.6659375 9.9359375 258.3671875 10.1484375 C269.56648587 15.39066227 275.83587265 27.53041818 280.3046875 38.5234375 C281.60646479 43.1502363 282.5086613 47.78611082 283.3046875 52.5234375 C283.46670528 53.23983524 283.62872307 53.95623299 283.79565048 54.69433975 C286.05112168 65.69105551 285.58488493 76.85818061 285.56347656 88.03027344 C285.56618984 90.40999458 285.56975266 92.78971487 285.57409668 95.16943359 C285.58318479 101.60762958 285.57969065 108.04576119 285.57333851 114.48395824 C285.56977085 118.51309386 285.57045806 122.54222135 285.57231903 126.57135773 C285.5726255 127.24230042 285.57293196 127.91324312 285.57324772 128.60451742 C285.57388724 129.96799531 285.57453567 131.3314732 285.5751929 132.69495109 C285.58088434 145.45524932 285.57435789 158.21551873 285.56359217 170.97581223 C285.55466593 181.89306895 285.55620335 192.81028311 285.56542969 203.72753906 C285.57616752 216.43904134 285.58032654 229.15051837 285.57420516 241.86202455 C285.57356814 243.22143443 285.5729394 244.58084432 285.57231903 245.94025421 C285.57201048 246.60890587 285.57170193 247.27755753 285.57138403 247.96647136 C285.56966698 252.64790005 285.57265015 257.32930772 285.57727814 262.01073456 C285.58309006 268.33094677 285.57898476 274.65107928 285.56748962 280.97128296 C285.56486306 283.28020343 285.5655735 285.58913071 285.57001495 287.8980484 C285.61424956 313.24683483 284.31216126 339.04977592 265.55859375 358.40625 C260.2704099 363.37366013 255.10814883 366.90619077 248.3828125 369.6640625 C246.30547447 370.47136011 246.30547447 370.47136011 244.4765625 371.5703125 C238.21866272 374.31658507 230.77174674 373.68016798 224.08032227 373.69702148 C222.97048981 373.7037085 221.86065735 373.71039551 220.7171936 373.71728516 C218.3153294 373.73129597 215.91345219 373.74320252 213.51156807 373.75323296 C209.70720293 373.76969958 205.90293433 373.79293881 202.09861755 373.81813049 C191.28478694 373.88875753 180.47092173 373.94907915 169.65698242 374.00024414 C163.0352776 374.03165572 156.41368113 374.0733566 149.79206657 374.12043953 C147.27276583 374.13642866 144.75343911 374.14876444 142.23410225 374.15734673 C138.70876735 374.16953203 135.18369739 374.19369472 131.65844727 374.22045898 C130.10508415 374.2213427 130.10508415 374.2213427 128.52033997 374.22224426 C122.75816061 374.28006378 117.84162667 374.93009037 112.3046875 376.5234375 C109.50390625 376.78222656 109.50390625 376.78222656 106.9921875 376.7890625 C106.06148437 376.79164063 105.13078125 376.79421875 104.171875 376.796875 C103.22570312 376.78914063 102.27953125 376.78140625 101.3046875 376.7734375 C100.35851562 376.78117187 99.41234375 376.78890625 98.4375 376.796875 C97.50679687 376.79429687 96.57609375 376.79171875 95.6171875 376.7890625 C94.78832031 376.78680664 93.95945312 376.78455078 93.10546875 376.78222656 C90.3046875 376.5234375 90.3046875 376.5234375 87.00244141 375.5234375 C80.14815346 373.72986509 72.86396045 374.23699423 65.828125 374.2578125 C64.21399884 374.25646232 62.59987307 374.25451886 60.98574829 374.25201416 C57.60846064 374.24907445 54.23127915 374.25331991 50.85400391 374.26269531 C46.56432724 374.27403402 42.27490246 374.26755862 37.98523521 374.25555038 C34.65111464 374.24825325 31.31705173 374.25065627 27.98292923 374.25580597 C26.40358067 374.25712375 24.82422656 374.25556182 23.24488449 374.25084686 C14.40832277 374.23026721 5.96358685 374.62247453 -2.77354431 376.06246948 C-17.89199823 378.44771132 -35.03280296 376.72189637 -47.6953125 367.5234375 C-62.10983798 356.05886142 -70.21877009 342.36638359 -74.8203125 324.7109375 C-74.99119385 324.07148193 -75.1620752 323.43202637 -75.33813477 322.77319336 C-77.5913914 313.77476193 -77.84529244 304.54635131 -77.82902527 295.31086731 C-77.83129083 294.34495578 -77.83355638 293.37904425 -77.83589059 292.38386267 C-77.84216913 289.18013096 -77.84140521 285.97644222 -77.84057617 282.77270508 C-77.84357151 280.46209662 -77.8469749 278.15148866 -77.85075378 275.84088135 C-77.85956003 269.58652298 -77.86193048 263.33217831 -77.86256957 257.07781434 C-77.86328202 253.16376431 -77.86542002 249.24971773 -77.86806679 245.33566856 C-77.87683298 232.36671229 -77.88148789 219.39776568 -77.88073631 206.42880658 C-77.88069636 205.73131164 -77.8806564 205.0338167 -77.88061523 204.31518555 C-77.88057435 203.61682733 -77.88053347 202.91846911 -77.88049135 202.19894852 C-77.88008523 190.890788 -77.88964919 179.58266083 -77.9037536 168.27450994 C-77.91816104 156.63043378 -77.92483878 144.98637536 -77.92415982 133.3422901 C-77.92390572 126.8182896 -77.92670839 120.29432688 -77.93733788 113.77033424 C-77.94706997 107.62989101 -77.94706318 101.48952125 -77.93982124 95.34907532 C-77.93878172 93.1062681 -77.94110034 90.86345618 -77.9471817 88.62065697 C-78.01355615 62.42783626 -75.87192404 35.79081681 -56.6953125 15.8984375 C-55.06082816 14.40412333 -53.39595872 12.94199886 -51.6953125 11.5234375 C-51.00050781 10.94207031 -50.30570313 10.36070312 -49.58984375 9.76171875 C-34.77317252 -1.27433843 -17.55116533 -0.15649508 0 0 Z " fill="#FCFCFC" transform="translate(303.6953125,227.4765625)"/>
<path d="M0 0 C23.43 0 46.86 0 71 0 C71 11.55 71 23.1 71 35 C70.67 35.33 70.34 35.66 70 36 C57.79 36 45.58 36 33 36 C33 77.58 33 119.16 33 162 C43.89 162 54.78 162 66 162 C66 174.21 66 186.42 66 199 C55.11 199 44.22 199 33 199 C33 243.88 33 288.76 33 335 C45.54 335 58.08 335 71 335 C71 343.25 71 351.5 71 360 C160.43 360 249.86 360 342 360 C340.02 357.36 338.04 354.72 336 352 C334.88686042 350.23934786 333.81526835 348.4507687 332.8125 346.625 C332.34457031 345.79226563 331.87664062 344.95953125 331.39453125 344.1015625 C327.36076314 335.13010066 326.57110135 327.05383162 326.63923645 317.26937866 C326.63792602 315.89956217 326.63529524 314.52974642 326.63146895 313.15993464 C326.62479859 309.41991096 326.63670864 305.68014771 326.65180314 301.94015718 C326.66480941 297.89803251 326.6603708 293.85592146 326.65809631 289.81378174 C326.65652647 282.81850099 326.66590538 275.82330446 326.68280983 268.82804489 C326.70723456 258.71420046 326.71500865 248.60039658 326.7187738 238.48652585 C326.72533284 222.07579235 326.74527914 205.66510369 326.77368164 189.25439453 C326.80123639 173.31689681 326.82246304 157.37941128 326.83520508 141.44189453 C326.83599325 140.45881323 326.83678142 139.47573192 326.83759347 138.46286027 C326.84150871 133.53082318 326.8452998 128.598786 326.84902918 123.66674876 C326.88010804 82.77779958 326.933757 41.88890622 327 1 C338.88 1 350.76 1 363 1 C363.00364563 5.02071686 363.00729126 9.04143372 363.01104736 13.18399048 C363.0463124 50.0414713 363.10132586 86.89888018 363.17792095 123.75629906 C363.1879386 128.58541651 363.19778269 133.41453431 363.20751953 138.24365234 C363.2094609 139.20505644 363.21140228 140.16646053 363.21340248 141.15699808 C363.24443681 156.73080347 363.26140713 172.30459411 363.27319422 187.8784246 C363.28559836 203.85461101 363.31308308 219.83071995 363.35461307 235.80685747 C363.37976959 245.66768133 363.39311571 255.52837675 363.39142957 265.38923316 C363.39139985 272.14810428 363.40599777 278.90684442 363.43216428 285.66566451 C363.44683471 289.56715306 363.45499238 293.468373 363.44580269 297.36988449 C363.43753175 300.94172153 363.44762576 304.51301824 363.47233662 308.08477502 C363.48073147 309.98909432 363.46946382 311.89346895 363.45750165 313.79776919 C363.52143313 320.12859602 363.63215616 324.23732402 368 329 C372.39876812 332.12141623 377.8426265 331.49044859 383 331 C387.32808015 329.28680161 388.9143679 327.0838699 391 323 C391.44702777 320.27815508 391.44702777 320.27815508 391.38476086 317.35596752 C391.3942174 316.2243589 391.40367394 315.09275029 391.41341704 313.9268505 C391.40856947 312.68852935 391.40372189 311.45020821 391.39872742 310.17436218 C391.40537424 308.8551862 391.41202107 307.53601021 391.41886932 306.1768592 C391.43691064 302.51679296 391.43633564 298.85692944 391.43273985 295.1968292 C391.43211655 291.24933484 391.44873094 287.30190883 391.46325684 283.35444641 C391.48606041 276.51571333 391.49793097 269.67703125 391.50238609 262.83826256 C391.50884324 252.95055248 391.53177293 243.06293465 391.55872939 233.17526171 C391.60201626 217.13337429 391.63197216 201.09149075 391.65356445 185.04956055 C391.67456845 169.46588229 391.70183849 153.88223578 391.73754883 138.29858398 C391.73974765 137.33808503 391.74194648 136.37758607 391.74421193 135.38798108 C391.75528144 130.56946307 391.76647428 125.75094535 391.77772844 120.93242776 C391.87094044 80.95497797 391.94170485 40.97751483 392 1 C403.88 1 415.76 1 428 1 C428.06783216 42.86982215 428.1215359 84.73962985 428.15319599 126.6094959 C428.15694807 131.55362887 428.16083104 136.49776173 428.16479492 141.44189453 C428.16558185 142.4261743 428.16636878 143.41045407 428.16717956 144.4245605 C428.18023026 160.35780982 428.20388227 176.29102664 428.23145839 192.22425668 C428.2595219 208.57558237 428.27617826 224.92689106 428.28226548 241.27823985 C428.28637996 251.36631022 428.29937106 261.45428872 428.3237494 271.54233082 C428.33961825 278.46190318 428.34439775 285.3814281 428.34050413 292.30101733 C428.33858438 296.29209433 428.34150867 300.28301089 428.35761642 304.2740593 C428.37227291 307.93233685 428.37291537 311.59034686 428.36269668 315.24863704 C428.36083968 317.18979406 428.37372679 319.13094819 428.38724393 321.07205904 C428.3351192 331.27711363 426.30563707 339.59392018 421.125 348.375 C420.79886719 348.96410156 420.47273438 349.55320312 420.13671875 350.16015625 C417.76700688 354.26335384 415.90504684 355.87596253 412 359 C486.58 359.33 561.16 359.66 638 360 C638 363.63 638 367.26 638 371 C635.83113763 373.16886237 630.68838429 372.15054086 627.67471313 372.15148926 C626.68367218 372.15572167 625.69263123 372.15995408 624.67155874 372.16431475 C621.32351821 372.17741595 617.97550154 372.18338271 614.62744141 372.18945312 C612.23810173 372.19738963 609.84876351 372.2057771 607.45942688 372.21458435 C602.30074204 372.2326846 597.14205738 372.2477959 591.98335648 372.26036072 C584.52139014 372.27862697 577.05945542 372.30329252 569.59751408 372.32973462 C557.48787115 372.37256351 545.37821951 372.41166878 533.26855469 372.44775391 C532.54318773 372.44991671 531.81782077 372.45207951 531.070473 372.45430785 C525.92198228 372.46963498 520.77349118 372.48483071 515.625 372.5 C509.74739555 372.51732063 503.8697913 372.53470637 497.9921875 372.55224609 C497.26830651 372.55440496 496.54442552 372.55656383 495.79860874 372.55878812 C483.73792775 372.59487769 471.67726254 372.63483131 459.61660326 372.67754889 C452.84081915 372.70137588 446.06504014 372.72303622 439.28923416 372.73963928 C432.91833179 372.75530805 426.5474588 372.77534348 420.17658043 372.79878426 C417.83318652 372.80655933 415.48978623 372.81262054 413.14638329 372.81687737 C409.95730588 372.82289831 406.76830699 372.83493408 403.57925415 372.84851074 C402.17513446 372.84895472 402.17513446 372.84895472 400.74264872 372.84940767 C399.89082715 372.85426542 399.03900558 372.85912316 398.16137123 372.86412811 C397.0566286 372.86730207 397.0566286 372.86730207 395.92956793 372.87054014 C393.77991334 372.93335583 393.77991334 372.93335583 391 374 C389.11641666 374.09417917 387.22968518 374.13071168 385.34375 374.1328125 C384.23902344 374.13410156 383.13429688 374.13539063 381.99609375 374.13671875 C380.26552734 374.13091797 380.26552734 374.13091797 378.5 374.125 C376.76943359 374.13080078 376.76943359 374.13080078 375.00390625 374.13671875 C373.34681641 374.13478516 373.34681641 374.13478516 371.65625 374.1328125 C370.13741211 374.13112061 370.13741211 374.13112061 368.58789062 374.12939453 C366 374 366 374 363 373 C360.98907087 372.90272861 358.97502545 372.86619275 356.96175098 372.8613348 C355.05548341 372.85312175 355.05548341 372.85312175 353.11070538 372.84474277 C351.69325454 372.84366665 350.27580362 372.84268287 348.85835266 372.84178162 C347.36208971 372.83722605 345.86582804 372.83223478 344.36956787 372.82684326 C340.23929165 372.81323349 336.10902361 372.80585253 331.97873081 372.79942851 C327.46336345 372.79130778 322.94801318 372.77743269 318.4326582 372.76427555 C309.66019183 372.73958083 300.8877214 372.72000193 292.11523865 372.70219031 C281.97211749 372.68137641 271.82901983 372.65423344 261.68591309 372.6270752 C234.89478868 372.5584816 208.10364272 372.49852246 181.3125 372.4375 C91.5628125 372.2209375 91.5628125 372.2209375 0 372 C0 249.24 0 126.48 0 0 Z " fill="#FAFBFB" transform="translate(614,229)"/>
<path d="M0 0 C16.83 0 33.66 0 51 0 C49.02 2.31 47.04 4.62 45 7 C33.21372442 20.82782688 29.84330771 39.72102793 29.85955811 57.36984253 C29.85658698 58.38894939 29.85361586 59.40805624 29.8505547 60.45804513 C29.84190979 63.85989658 29.84036301 67.26171267 29.83886719 70.66357422 C29.83423592 73.10842463 29.82921085 75.55327431 29.82382202 77.99812317 C29.8107231 84.63294313 29.80422018 91.26775578 29.79981136 97.90258551 C29.79704076 102.05366104 29.79280186 106.20473428 29.78830719 110.35580826 C29.77611831 121.87168417 29.7658194 133.38755825 29.7624321 144.90344048 C29.76221253 145.63950181 29.76199297 146.37556315 29.76176675 147.13392938 C29.76154847 147.87165826 29.76133019 148.60938713 29.7611053 149.36947143 C29.76066185 150.86415283 29.76021529 152.35883423 29.75976562 153.85351562 C29.7595442 154.59491433 29.75932277 155.33631304 29.75909463 156.10017838 C29.75515314 168.09264414 29.7377173 180.08504891 29.7144061 192.07749115 C29.69061057 204.41982918 29.67822647 216.76213672 29.67706418 229.10449803 C29.67615182 236.02210066 29.67051152 242.93962387 29.65224457 249.85720444 C29.63509889 256.37271588 29.63365182 262.88811743 29.64238358 269.40364647 C29.64314924 271.78268144 29.63887412 274.16172477 29.62892532 276.54073906 C29.53376689 300.73278443 31.67062226 322.7050445 46 343 C46.57492187 343.57363281 47.14984375 344.14726563 47.7421875 344.73828125 C49 346 49 346 49 348 C32.5 348 16 348 -1 348 C1.61987466 324.32756111 4.28472518 300.66168058 7 277 C-3.56 277 -14.12 277 -25 277 C-25 281.62 -25 286.24 -25 291 C-25.15535956 293.44263811 -25.34931402 295.88396852 -25.62109375 298.31640625 C-25.75193359 299.51201172 -25.88277344 300.70761719 -26.01757812 301.93945312 C-26.22543945 303.73286133 -26.22543945 303.73286133 -26.4375 305.5625 C-26.57220703 306.79291016 -26.70691406 308.02332031 -26.84570312 309.29101562 C-27.39827261 314.24257729 -27.95721314 319.12447954 -29 324 C-36.89329531 323.62412879 -42.91475738 321.8182333 -48.79296875 316.32421875 C-53.92264948 310.61190761 -56.44616193 304.59226024 -57.66423035 297.02200317 C-57.79063941 296.24104692 -57.91704848 295.46009066 -58.04728812 294.65546906 C-59.51500178 284.68319573 -59.41208742 274.70503312 -59.37231445 264.64794922 C-59.37474869 262.46438423 -59.37847409 260.28082036 -59.38337708 258.09725952 C-59.39270213 252.22134473 -59.38343239 246.34559896 -59.37004495 240.46969748 C-59.35864035 234.28994856 -59.36284479 228.11020687 -59.36479187 221.93045044 C-59.36567188 211.55956293 -59.35465478 201.18874115 -59.33618164 190.81787109 C-59.31500742 178.86287523 -59.31150834 166.90797548 -59.3177436 154.95296466 C-59.3234565 143.40393433 -59.31776966 131.85493751 -59.30657005 120.30591202 C-59.30195067 115.41239928 -59.30103859 110.51890722 -59.3031559 105.62539291 C-59.30505249 99.85501089 -59.29683049 94.0847254 -59.2810955 88.31436539 C-59.27688723 86.20862477 -59.2759785 84.1028743 -59.27878571 81.99713135 C-59.3216733 44.04306034 -59.3216733 44.04306034 -47.9375 31.7265625 C-42.10551799 26.52951401 -35.66950823 24.8552923 -28 25 C-27.56416574 29.44257299 -27.13739771 33.88590608 -26.71826172 38.33007812 C-26.57511621 39.83518748 -26.42968729 41.34008179 -26.28173828 42.84472656 C-26.06690811 45.03394836 -25.86089311 47.22386746 -25.65625 49.4140625 C-25.53056641 50.7232666 -25.40488281 52.0324707 -25.27539062 53.38134766 C-24.90595589 59.57723982 -25 65.7931037 -25 72 C-14.44 72 -3.88 72 7 72 C6.49339844 67.72675781 6.49339844 67.72675781 5.9765625 63.3671875 C1.80692076 28.05472637 1.80692076 28.05472637 0.6875 15.75 C0.61160645 14.92741699 0.53571289 14.10483398 0.45751953 13.25732422 C0.07313729 8.7952311 0 4.50105932 0 0 Z " fill="#242F49" transform="translate(320,241)"/>
<path d="M0 0 C66.7632312 0 66.7632312 0 80 11 C80 11.66 80 12.32 80 13 C80.598125 13.2475 81.19625 13.495 81.8125 13.75 C88.43975904 17.53700517 91.86238661 27.02330119 94 34 C97.06841665 47.03028363 97.44472518 59.76093277 97.3984375 73.09765625 C97.40046529 75.18737387 97.40338254 77.27709079 97.40713501 79.36680603 C97.41152425 83.71766996 97.40523744 88.06834743 97.39111328 92.41918945 C97.37401292 97.95166633 97.38389004 103.48370666 97.40183067 109.01616764 C97.41275199 113.32229306 97.40918437 117.62831762 97.4014473 121.93444633 C97.39946883 123.97267142 97.40182012 126.01090615 97.40888596 128.04911995 C97.46560277 148.99597167 95.91785558 171.39077106 81.29296875 187.73046875 C67.74165588 201.14326735 54.03081464 202.94273252 35 204 C34.67 228.42 34.34 252.84 34 278 C22.78 278 11.56 278 0 278 C0 186.26 0 94.52 0 0 Z " fill="#FBFCFC" transform="translate(1070,229)"/>
<path d="M0 0 C5.51679531 2.68096895 8.94322873 6.41864732 11.2265625 12.08203125 C15.13829111 24.50738472 14.65149184 37.17051539 14.61474609 50.04711914 C14.61881731 52.45170835 14.62416227 54.85629568 14.63067627 57.26087952 C14.64287986 63.08405076 14.64117125 68.90709133 14.63243835 74.7302664 C14.62563177 79.4671491 14.62475784 84.20399934 14.6280098 88.94088554 C14.6284695 89.61797415 14.62892919 90.29506276 14.62940282 90.99266921 C14.63036211 92.36863523 14.63133475 93.74460125 14.6323206 95.12056725 C14.64085139 107.98762125 14.63107645 120.85461086 14.6149195 133.72165429 C14.60151536 144.73707581 14.60384967 155.75240245 14.61767578 166.76782227 C14.63376734 179.59395021 14.64003083 192.42002191 14.63083899 205.24615854 C14.62988345 206.61643659 14.62894034 207.98671465 14.6280098 209.35699272 C14.62754697 210.03100476 14.62708414 210.7050168 14.62660729 211.39945345 C14.62402833 216.12540188 14.62836459 220.85131431 14.63544846 225.57725716 C14.64414729 231.94923179 14.63804288 238.32102815 14.62076569 244.69298363 C14.61681659 247.0241275 14.61790767 249.35528651 14.62455368 251.68642426 C14.70436174 282.53597498 14.70436174 282.53597498 7.2265625 291.08203125 C1.46062546 296.62036551 -2.95329315 297.39259943 -10.765625 297.2890625 C-16.27947327 296.90953788 -19.98148042 295.17986625 -23.9609375 291.26953125 C-32.96305109 279.23872489 -31.3378846 262.89323158 -31.27514648 248.71801758 C-31.27893498 246.27077423 -31.28443938 243.82353304 -31.29151917 241.376297 C-31.30398009 235.44949151 -31.29795807 229.52288154 -31.28284358 223.59609846 C-31.26588683 216.68087349 -31.26920571 209.76570057 -31.27293766 202.85046121 C-31.27880071 190.50646553 -31.26470426 178.16257222 -31.23999023 165.81860352 C-31.21605839 153.86381192 -31.20899406 141.90915696 -31.21948242 129.9543457 C-31.23091086 116.90482881 -31.23279916 103.85537494 -31.21838433 90.80585879 C-31.21685863 89.41258697 -31.21533827 88.01931515 -31.21382332 86.62604332 C-31.2130655 85.94069341 -31.21230769 85.25534351 -31.21152691 84.54922542 C-31.20680017 79.73818367 -31.20862393 74.92717022 -31.21288872 70.11612892 C-31.21835083 63.63418259 -31.20749964 57.1523828 -31.18593407 50.67046928 C-31.18038548 48.2965623 -31.17988311 45.92263714 -31.18488693 43.54872894 C-31.19087538 40.29947595 -31.17826627 37.05079186 -31.16111755 33.80158997 C-31.1671276 32.87044382 -31.17313764 31.93929768 -31.17932981 30.97993499 C-31.07291678 19.83275564 -28.16297721 8.74795761 -20.3359375 0.51953125 C-14.08618913 -2.00229704 -6.42683619 -2.12719226 0 0 Z " fill="#252F49" transform="translate(414.7734375,267.91796875)"/>
<path d="M0 0 C16.83 0 33.66 0 51 0 C51 114.84 51 229.68 51 348 C34.83 348 18.66 348 2 348 C3.98 345.69 5.96 343.38 8 341 C17.63819739 326.63856301 22.15599798 311.86795347 22.14044189 294.5471344 C22.14341302 293.50705307 22.14638414 292.46697175 22.1494453 291.39537281 C22.1581039 287.91664984 22.15963816 284.4379614 22.16113281 280.95922852 C22.16576309 278.46202013 22.17078803 275.96481245 22.17617798 273.46760559 C22.189286 266.68616903 22.19578136 259.90474592 22.20018864 253.12329984 C22.20295739 248.8822926 22.20719596 244.64128762 22.21169281 240.40028191 C22.2238828 228.63995921 22.23418163 216.87963831 22.2375679 205.11930943 C22.23778747 204.36737179 22.23800703 203.61543415 22.23823325 202.84071052 C22.23845153 202.08704788 22.23866981 201.33338525 22.2388947 200.55688435 C22.23933815 199.02986626 22.23978472 197.50284817 22.24023438 195.97583008 C22.2404558 195.21838817 22.24067723 194.46094627 22.24090537 193.68055158 C22.24484802 181.42477741 22.26228693 169.16906289 22.2855939 156.91331173 C22.3093731 144.30659216 22.32177278 131.69990243 22.32293582 119.09316009 C22.32384907 112.02470043 22.32951216 104.95631845 22.34775543 97.88788033 C22.36487416 91.23201736 22.36636022 84.57632613 22.35761642 77.92043877 C22.35684944 75.48735026 22.36114363 73.05425366 22.37107468 70.6211853 C22.45850093 47.8533319 20.68467286 24.62686692 6 6 C4.08198888 4.11571215 2.17580976 2.59205592 0 1 C0 0.67 0 0.34 0 0 Z " fill="#273049" transform="translate(441,241)"/>
<path d="M0 0 C18 0 18 0 25.8125 6.25 C35.27077504 18.14040291 36.15571917 33.9483575 36.14044189 48.58532715 C36.14341302 49.49588694 36.14638414 50.40644673 36.1494453 51.34459925 C36.15805154 54.3671122 36.15963364 57.38958518 36.16113281 60.41210938 C36.16576675 62.5912484 36.17079218 64.77038663 36.17617798 66.94952393 C36.18924941 72.8507783 36.19573676 78.75202132 36.20018864 84.65328789 C36.20312818 88.34774297 36.20723464 92.04219502 36.21169281 95.73664856 C36.22535457 107.31772264 36.2350274 118.8987897 36.2388947 130.47987127 C36.24337081 143.80748499 36.26090356 157.1349639 36.2898953 170.46254873 C36.31157727 180.79161075 36.32160247 191.12064398 36.32293582 201.44972849 C36.32397928 207.6060676 36.32978875 213.76230991 36.34775543 219.91862488 C36.3643489 225.71682498 36.36633737 231.51485668 36.35761642 237.3130722 C36.35685202 239.42764999 36.36110882 241.54223725 36.37107468 243.65679169 C36.54030951 281.83898773 36.54030951 281.83898773 24.99609375 294.19921875 C17.3570094 301.09083888 10.64819642 300 0 300 C0 201 0 102 0 0 Z " fill="#28324C" transform="translate(522,265)"/>
<path d="M0 0 C27.72 0 55.44 0 84 0 C84 7.26 84 14.52 84 22 C83.505 22.495 83.505 22.495 83 23 C73.43 23 63.86 23 54 23 C54 124.97 54 226.94 54 332 C45.75 332 37.5 332 29 332 C29 230.03 29 128.06 29 23 C19.43 23 9.86 23 0 23 C0 15.41 0 7.82 0 0 Z " fill="#FAFBFB" transform="translate(817,229)"/>
<path d="M0 0 C8.91 0 17.82 0 27 0 C27 109.56 27 219.12 27 332 C18.09 332 9.18 332 0 332 C0 222.44 0 112.88 0 0 Z " fill="#FBFCFC" transform="translate(769,229)"/>
<path d="M0 0 C6.48691052 0.0541866 11.27776218 1.61052922 16.5625 5.375 C18.5625 7.8125 18.5625 7.8125 19.5625 10.375 C19.90746017 11.22153137 20.25242035 12.06806274 20.60783386 12.94024658 C21.82914253 17.334342 21.84994761 21.35534176 21.8371582 25.89355469 C21.8448246 27.30454941 21.8448246 27.30454941 21.85264587 28.74404907 C21.86651321 31.84505631 21.86558682 34.94584049 21.86328125 38.046875 C21.86717057 40.21152834 21.87150572 42.37618092 21.87626648 44.54083252 C21.88372316 49.07672601 21.88344198 53.61254166 21.87817383 58.1484375 C21.87238882 63.94298927 21.88928965 69.7372204 21.9125185 75.53171921 C21.92729911 80.00317224 21.9281215 84.4745489 21.92500877 88.94602203 C21.9255201 91.08131799 21.93072222 93.21661843 21.94082069 95.35189056 C21.95324769 98.34775688 21.94635523 101.34300965 21.93481445 104.33886719 C21.94628006 105.64535721 21.94628006 105.64535721 21.95797729 106.97824097 C21.89691308 114.20100214 20.6041287 121.02089571 16.8125 127.25 C11.23770923 132.51508017 7.94907899 133.60005077 0.3046875 133.48046875 C-0.95746582 133.4652417 -2.21961914 133.45001465 -3.52001953 133.43432617 C-4.48278809 133.41474854 -5.44555664 133.3951709 -6.4375 133.375 C-6.46082856 116.18161031 -6.47847896 98.98822553 -6.48931217 81.79482365 C-6.49447522 73.812185 -6.50151809 65.82955617 -6.51293945 57.84692383 C-6.52288602 50.89176201 -6.52935336 43.93660731 -6.53158849 36.98143858 C-6.53289565 33.29648073 -6.53598179 29.61154322 -6.54323006 25.92659187 C-6.5512434 21.81962292 -6.55149116 17.71268963 -6.55102539 13.60571289 C-6.55462067 12.37501068 -6.55821594 11.14430847 -6.56192017 9.87631226 C-6.5605455 8.76426926 -6.55917084 7.65222626 -6.55775452 6.50648499 C-6.55867631 5.53399339 -6.5595981 4.56150179 -6.56054783 3.55954075 C-6.32201381 -0.6752945 -3.69620722 0.12242215 0 0 Z " fill="#26304A" transform="translate(1110.4375,263.625)"/>
<path d="M0 0 C0.33 0 0.66 0 1 0 C1 108.57 1 217.14 1 329 C1.66 329 2.32 329 3 329 C2 331 2 331 0 332 C-0.66 332.99 -1.32 333.98 -2 335 C-2 334.01 -2 333.02 -2 332 C-2.64324219 332.01160156 -3.28648437 332.02320313 -3.94921875 332.03515625 C-11.34614069 332.10901995 -18.63414095 331.65578395 -26 331 C-26 330.67 -26 330.34 -26 330 C-17.75 329.67 -9.5 329.34 -1 329 C-0.67 220.43 -0.34 111.86 0 0 Z " fill="#1B2236" transform="translate(797,232)"/>
<path d="M0 0 C0.99 0.495 0.99 0.495 2 1 C1.67 98.35 1.34 195.7 1 296 C2.32 295.67 3.64 295.34 5 295 C8.25 295.9375 8.25 295.9375 11 297 C11 297.33 11 297.66 11 298 C7.37 298 3.74 298 0 298 C0 199.66 0 101.32 0 0 Z " fill="#212838" transform="translate(523,266)"/>
<path d="M0 0 C0.33 0 0.66 0 1 0 C1.02281395 32.49373334 1.04051038 64.98746437 1.05106533 97.48120389 C1.05231603 101.31762878 1.05361035 105.15405365 1.05493164 108.99047852 C1.05519395 109.75423972 1.05545626 110.51800093 1.05572652 111.30490642 C1.0600775 123.67064504 1.06796191 136.03637901 1.0771528 148.40211488 C1.08650523 161.09105763 1.09205899 173.77999795 1.09408849 186.46894401 C1.09546041 194.2983076 1.09979312 202.12765805 1.10791647 209.95701759 C1.11382864 215.96117331 1.11445492 221.96531773 1.11310768 227.9694767 C1.11338303 230.43213736 1.11537536 232.89479851 1.11920547 235.35745621 C1.12417638 238.71814529 1.12298567 242.07877801 1.12025452 245.43946838 C1.12316736 246.41516126 1.1260802 247.39085413 1.12908131 248.39611346 C1.11813811 253.37394599 0.85090568 258.09315347 0 263 C-1.5625 261.25 -1.5625 261.25 -3 259 C-2.75203633 256.83031791 -2.55766393 255.55766393 -1 254 C-0.89863995 252.6397011 -0.86603615 251.27420193 -0.8613348 249.91014004 C-0.85586036 249.02336651 -0.85038591 248.13659299 -0.84474558 247.22294754 C-0.84376747 246.23755951 -0.84278936 245.25217149 -0.84178162 244.23692322 C-0.83684364 243.19884649 -0.83190566 242.16076977 -0.82681805 241.09123617 C-0.81135938 237.58418195 -0.8030599 234.07714613 -0.79467773 230.57006836 C-0.78510578 228.06748795 -0.77509611 225.56490919 -0.76467896 223.06233215 C-0.74318144 217.65972883 -0.72475158 212.25712865 -0.70907402 206.85450554 C-0.68640141 199.04313588 -0.65825503 191.23179357 -0.62875474 183.42044706 C-0.58104676 170.74832767 -0.5377913 158.07619713 -0.49731445 145.40405273 C-0.45797582 133.09121837 -0.41655353 120.77839394 -0.37231445 108.46557617 C-0.36959018 107.70714202 -0.36686591 106.94870787 -0.36405908 106.16729086 C-0.35037987 102.36260727 -0.33665955 98.55792383 -0.32291877 94.75324047 C-0.20890364 63.16884744 -0.10217929 31.58443363 0 0 Z " fill="#E0E3E9" transform="translate(463,290)"/>
<path d="M0 0 C16.83 0 33.66 0 51 0 C45 7 45 7 42.875 9.4375 C40.44923118 12.75271739 38.73253978 16.28609824 37 20 C36.34 20 35.68 20 35 20 C33.875 13.25 33.875 13.25 35 11 C34.34 10.67 33.68 10.34 33 10 C33.66 8.35 34.32 6.7 35 5 C34.01 5.33 33.02 5.66 32 6 C31.67 5.34 31.34 4.68 31 4 C33.97 4 36.94 4 40 4 C39.505 3.505 39.505 3.505 39 3 C39.99 2.67 40.98 2.34 42 2 C42 2.66 42 3.32 42 4 C42.66 4 43.32 4 44 4 C44 3.34 44 2.68 44 2 C22.22 1.505 22.22 1.505 0 1 C0 0.67 0 0.34 0 0 Z " fill="#31394C" transform="translate(320,241)"/>
<path d="M0 0 C3.63 0 7.26 0 11 0 C11 0.33 11 0.66 11 1 C7.7 1 4.4 1 1 1 C1.33 42.91 1.66 84.82 2 128 C2.99 127.505 2.99 127.505 4 127 C4 127.99 4 128.98 4 130 C5.98 130 7.96 130 10 130 C10 130.33 10 130.66 10 131 C6.7 131 3.4 131 0 131 C0 87.77 0 44.54 0 0 Z " fill="#182033" transform="translate(1105,265)"/>
<path d="M0 0 C0.66 0 1.32 0 2 0 C2.12375 0.804375 2.2475 1.60875 2.375 2.4375 C2.684375 3.7059375 2.684375 3.7059375 3 5 C3.99 5.495 3.99 5.495 5 6 C4.67 6.66 4.34 7.32 4 8 C3.84391977 10.40560273 3.74195542 12.78702772 3.68359375 15.1953125 C3.6524221 16.25647781 3.6524221 16.25647781 3.62062073 17.33908081 C3.55518922 19.60095425 3.49627026 21.86294462 3.4375 24.125 C3.39430867 25.65756422 3.35069418 27.19011657 3.30664062 28.72265625 C3.19951445 32.48165073 3.0982291 36.24076292 3 40 C2.67 40 2.34 40 2 40 C2 28.45 2 16.9 2 5 C-21.1 5 -44.2 5 -68 5 C-67.67 4.34 -67.34 3.68 -67 3 C-65.06688965 3.01571045 -65.06688965 3.01571045 -63.09472656 3.03173828 C-58.21161797 3.06854621 -53.32852099 3.09111632 -48.4453125 3.10986328 C-46.35089034 3.1197849 -44.25648149 3.13332645 -42.16210938 3.15087891 C-28.29999735 3.26395756 -14.763115 2.69224882 -1 1 C-0.505 1.99 -0.505 1.99 0 3 C0 2.01 0 1.02 0 0 Z " fill="#1F2739" transform="translate(683,224)"/>
<path d="M0 0 C0.43517642 4.46094408 0.86200362 8.9225926 1.28173828 13.38500977 C1.42505959 14.89693738 1.57049998 16.40866591 1.71826172 17.92016602 C2.63454362 27.3104972 3.22293794 36.55094069 3 46 C0.0234375 43.3359375 0.0234375 43.3359375 -0.1875 40.3125 C-0.125625 39.549375 -0.06375 38.78625 0 38 C-0.66 38 -1.32 38 -2 38 C-2 31.73 -2 25.46 -2 19 C-1.67 19 -1.34 19 -1 19 C-0.84850702 15.37114676 -0.84850702 15.37114676 -2 12 C-1.91255632 10.12137125 -1.75824458 8.24544819 -1.5625 6.375 C-1.46066406 5.37210937 -1.35882813 4.36921875 -1.25390625 3.3359375 C-1.17011719 2.56507813 -1.08632813 1.79421875 -1 1 C-5.455 1.495 -5.455 1.495 -10 2 C-6.3558226 -0.4294516 -4.28758728 -0.16179575 0 0 Z " fill="#4C5464" transform="translate(292,266)"/>
<path d="M0 0 C15.18 0 30.36 0 46 0 C45.34 0.33 44.68 0.66 44 1 C44 1.66 44 2.32 44 3 C43.34 3 42.68 3 42 3 C42 2.34 42 1.68 42 1 C40.95585937 1.0721875 39.91171875 1.144375 38.8359375 1.21875 C26.54844625 2.01199311 14.31001587 2.11266559 2 2 C1.67 2.66 1.34 3.32 1 4 C0.67 2.68 0.34 1.36 0 0 Z " fill="#202739" transform="translate(320,242)"/>
<path d="M0 0 C7.92 0 15.84 0 24 0 C22.68 0.33 21.36 0.66 20 1 C19.67 1.99 19.34 2.98 19 4 C18.48953125 3.83628906 17.9790625 3.67257812 17.453125 3.50390625 C14.18708172 2.83301519 11.0813253 2.9066544 7.75 2.9375 C5.85507812 2.95103516 5.85507812 2.95103516 3.921875 2.96484375 C2.95765625 2.97644531 1.9934375 2.98804688 1 3 C0.67 2.01 0.34 1.02 0 0 Z " fill="#1F273A" transform="translate(848,562)"/>
<path d="M0 0 C0.33 0.66 0.66 1.32 1 2 C1.66 2 2.32 2 3 2 C3 2.66 3 3.32 3 4 C2.34 4 1.68 4 1 4 C1.20625 4.598125 1.4125 5.19625 1.625 5.8125 C2 8 2 8 0 11 C-1.00568242 12.66324401 -2.00664799 14.32936253 -3 16 C-4.1484375 14.390625 -4.1484375 14.390625 -5 12 C-4.1015625 8.984375 -4.1015625 8.984375 -2.625 5.75 C-2.14289063 4.67234375 -1.66078125 3.5946875 -1.1640625 2.484375 C-0.77992188 1.66453125 -0.39578125 0.8446875 0 0 Z " fill="#3A4152" transform="translate(460,560)"/>
<path d="M0 0 C0.99 0.66 1.98 1.32 3 2 C3.12375 2.763125 3.2475 3.52625 3.375 4.3125 C4.22341868 7.96070033 6.36289324 9.43051136 9 12 C9 12.99 9 13.98 9 15 C4.77519208 13.43525633 2.64238471 10.54635842 0 7 C-1.3125 4.125 -1.3125 4.125 -2 2 C-1.34 2 -0.68 2 0 2 C0 1.34 0 0.68 0 0 Z " fill="#2C3547" transform="translate(267,545)"/>
<path d="M0 0 C6.93 0.495 6.93 0.495 14 1 C14 1.33 14 1.66 14 2 C16.97 2.495 16.97 2.495 20 3 C20 3.33 20 3.66 20 4 C13.4 4 6.8 4 0 4 C0 2.68 0 1.36 0 0 Z " fill="#20293D" transform="translate(774,225)"/>
<path d="M0 0 C0.66 0.33 1.32 0.66 2 1 C1.01 1.33 0.02 1.66 -1 2 C-1 2.66 -1 3.32 -1 4 C-1.66 4 -2.32 4 -3 4 C-3 4.66 -3 5.32 -3 6 C-4.5778125 6.61875 -4.5778125 6.61875 -6.1875 7.25 C-9.58704057 8.69411378 -12.21424307 10.55191058 -15 13 C-15.66 12.67 -16.32 12.34 -17 12 C-11.69378564 6.93944372 -6.84394298 2.76159103 0 0 Z " fill="#E1E5EB" transform="translate(264,232)"/>
<path d="M0 0 C1.89685547 0.05220703 1.89685547 0.05220703 3.83203125 0.10546875 C5.74048828 0.14607422 5.74048828 0.14607422 7.6875 0.1875 C9.15123047 0.23970703 9.15123047 0.23970703 10.64453125 0.29296875 C10.64453125 1.28296875 10.64453125 2.27296875 10.64453125 3.29296875 C5.03453125 3.29296875 -0.57546875 3.29296875 -6.35546875 3.29296875 C-3.35546875 0.29296875 -3.35546875 0.29296875 0 0 Z " fill="#2D3446" transform="translate(401.35546875,266.70703125)"/>
<path d="M0 0 C0.33 0 0.66 0 1 0 C1.02920143 4.18748519 1.04686646 8.37494391 1.0625 12.5625 C1.07087891 13.74392578 1.07925781 14.92535156 1.08789062 16.14257812 C1.10392999 21.86863072 1.0510705 27.36394482 0 33 C-1.5625 31.25 -1.5625 31.25 -3 29 C-2.75203633 26.83031791 -2.55766393 25.55766393 -1 24 C-0.84235595 22.22130274 -0.74899323 20.43681524 -0.68359375 18.65234375 C-0.64169922 17.57275391 -0.59980469 16.49316406 -0.55664062 15.38085938 C-0.51732422 14.24455078 -0.47800781 13.10824219 -0.4375 11.9375 C-0.39431641 10.79732422 -0.35113281 9.65714844 -0.30664062 8.48242188 C-0.20017161 5.65507805 -0.09815793 2.82764262 0 0 Z " fill="#E4E5EA" transform="translate(463,520)"/>
<path d="M0 0 C0.66 0.33 1.32 0.66 2 1 C2 2.32 2 3.64 2 5 C1.34 5 0.68 5 0 5 C-0.268125 6.11375 -0.53625 7.2275 -0.8125 8.375 C-2 12 -2 12 -5 14 C-5.602537 7.01057082 -5.602537 7.01057082 -3.88671875 4.1328125 C-2.66254412 2.69138998 -1.33721771 1.33721771 0 0 Z " fill="#31394B" transform="translate(271,274)"/>
<path d="M0 0 C1.65 0.33 3.3 0.66 5 1 C1.19588166 4.91939465 -2.81576108 8.49102731 -7 12 C-7 10.35 -7 8.7 -7 7 C-5.68 6.67 -4.36 6.34 -3 6 C-3 5.34 -3 4.68 -3 4 C-2.01 4 -1.02 4 0 4 C0 2.68 0 1.36 0 0 Z " fill="#2F3846" transform="translate(251,235)"/>
<path d="M0 0 C4.95 0.99 4.95 0.99 10 2 C8.515 4.475 8.515 4.475 7 7 C4.69 6.67 2.38 6.34 0 6 C0.66 4.68 1.32 3.36 2 2 C1.34 2 0.68 2 0 2 C0 1.34 0 0.68 0 0 Z " fill="#2E344A" transform="translate(266,600)"/>
<path d="M0 0 C0.66 0 1.32 0 2 0 C3.0070238 5.03511899 2.97387813 8.23947038 1 13 C1.66 13.33 2.32 13.66 3 14 C1.68 14.99 0.36 15.98 -1 17 C-0.67 11.39 -0.34 5.78 0 0 Z " fill="#383F4E" transform="translate(324,542)"/>
<path d="M0 0 C0 3 0 3 -1.25 4.5625 C-3.1857337 6.15256697 -4.61999055 7.18399676 -7 8 C-10.25 7.625 -10.25 7.625 -13 7 C-10.31767339 5.21178226 -7.69711039 3.79857396 -4.8125 2.375 C-3.91144531 1.92898438 -3.01039062 1.48296875 -2.08203125 1.0234375 C-1.39496094 0.68570312 -0.70789062 0.34796875 0 0 Z " fill="#3A4252" transform="translate(1143,423)"/>
<path d="M0 0 C1.89551022 -0.05441656 3.7914792 -0.09298035 5.6875 -0.125 C6.74324219 -0.14820313 7.79898437 -0.17140625 8.88671875 -0.1953125 C12.02251859 0.00141271 14.17645373 0.66942346 17 2 C17 2.66 17 3.32 17 4 C13.30458414 4.95024979 10.69541586 4.95024979 7 4 C7.33 3.34 7.66 2.68 8 2 C5.36 1.67 2.72 1.34 0 1 C0 0.67 0 0.34 0 0 Z " fill="#3F4656" transform="translate(1105,264)"/>
<path d="M0 0 C0.66 0.33 1.32 0.66 2 1 C0.68 4.96 -0.64 8.92 -2 13 C-2.99 13 -3.98 13 -5 13 C-5 10.36 -5 7.72 -5 5 C-4.01 5.495 -4.01 5.495 -3 6 C-2.01 4.02 -1.02 2.04 0 0 Z " fill="#303648" transform="translate(232,264)"/>
<path d="M0 0 C0.66 0.66 1.32 1.32 2 2 C1.625 4.125 1.625 4.125 1 6 C-2.77545388 4.90931332 -5.47043472 4.0916909 -8 1 C-5.23749964 -0.38125018 -3.05268901 -0.19079306 0 0 Z " fill="#E8ECF2" transform="translate(264,593)"/>
<path d="M0 0 C0.33 0 0.66 0 1 0 C1.94416428 4.15432283 2.22860553 6.3293556 0 10 C0 10.66 0 11.32 0 12 C-1.53125 13.2890625 -1.53125 13.2890625 -3.5 14.625 C-4.1496875 15.07101562 -4.799375 15.51703125 -5.46875 15.9765625 C-5.9740625 16.31429688 -6.479375 16.65203125 -7 17 C-7.66 16.67 -8.32 16.34 -9 16 C-8.236875 15.29875 -7.47375 14.5975 -6.6875 13.875 C-2.78262392 9.69769071 -0.83046467 5.64715977 0 0 Z " fill="#D1D6DF" transform="translate(1131,378)"/>
<path d="M0 0 C0.66 0 1.32 0 2 0 C2 0.99 2 1.98 2 3 C3.65 3 5.3 3 7 3 C7.33 3.66 7.66 4.32 8 5 C6.23050905 5.10815225 4.45912513 5.18566083 2.6875 5.25 C1.70136719 5.29640625 0.71523438 5.3428125 -0.30078125 5.390625 C-3 5 -3 5 -4.85546875 2.984375 C-5.42201172 2.00210938 -5.42201172 2.00210938 -6 1 C-3.83125748 1.50603992 -2.00032373 1.99983813 0 3 C0 2.01 0 1.02 0 0 Z " fill="#262B3B" transform="translate(989,556)"/>
<path d="M0 0 C6.27 0 12.54 0 19 0 C18.01 1.32 17.02 2.64 16 4 C16 3.34 16 2.68 16 2 C10.72 1.67 5.44 1.34 0 1 C0 0.67 0 0.34 0 0 Z " fill="#22283A" transform="translate(304,314)"/>
<path d="M0 0 C0.33 0 0.66 0 1 0 C1 1.98 1 3.96 1 6 C0.01 6.33 -0.98 6.66 -2 7 C-1.01 7.66 -0.02 8.32 1 9 C1.1875 12.625 1.1875 12.625 1 16 C-1 15 -1 15 -1.8515625 12.71484375 C-2.10679687 11.79832031 -2.36203125 10.88179688 -2.625 9.9375 C-2.88539063 9.01839844 -3.14578125 8.09929687 -3.4140625 7.15234375 C-3.60742188 6.44207031 -3.80078125 5.73179687 -4 5 C-3.01 5 -2.02 5 -1 5 C-0.67 3.35 -0.34 1.7 0 0 Z " fill="#393F56" transform="translate(461,259)"/>
<path d="M0 0 C2.97 0 5.94 0 9 0 C8.34 0.66 7.68 1.32 7 2 C8.32 2.66 9.64 3.32 11 4 C7.04 4 3.08 4 -1 4 C-0.67 2.68 -0.34 1.36 0 0 Z " fill="#343C4B" transform="translate(402,561)"/>
<path d="M0 0 C-1.16142685 4.35535069 -2.07699505 6.64619703 -6 9 C-6.125 3.25 -6.125 3.25 -5 1 C-2 0 -2 0 0 0 Z " fill="#2E3347" transform="translate(426,551)"/>
<path d="M0 0 C0.99 0.66 1.98 1.32 3 2 C2.34 2 1.68 2 1 2 C0.67 2.99 0.34 3.98 0 5 C-1.62890625 6.38671875 -1.62890625 6.38671875 -3.5625 7.6875 C-4.52349609 8.34298828 -4.52349609 8.34298828 -5.50390625 9.01171875 C-5.99761719 9.33785156 -6.49132812 9.66398437 -7 10 C-5.51642778 5.89164617 -4.06678166 2.03339083 0 0 Z " fill="#EBEEF1" transform="translate(243,251)"/>
<path d="M0 0 C2.02558881 3.34939881 2.21738987 5.86962551 2.125 9.75 C2.10695313 10.73484375 2.08890625 11.7196875 2.0703125 12.734375 C2.04710937 13.48203125 2.02390625 14.2296875 2 15 C0.02130559 12.03195838 -0.34161439 10.90215354 -0.6875 7.5 C-0.77386719 6.7265625 -0.86023437 5.953125 -0.94921875 5.15625 C-1 3 -1 3 0 0 Z " fill="#DCE1E7" transform="translate(1164,268)"/>
<path d="M0 0 C1.65 0 3.3 0 5 0 C3.92598892 2.91517292 3.22189824 4.77810176 1 7 C0.01 7 -0.98 7 -2 7 C-1.34 4.69 -0.68 2.38 0 0 Z " fill="#1E283A" transform="translate(546,552)"/>
<path d="M0 0 C0.99 1.32 1.98 2.64 3 4 C1.1875 6 1.1875 6 -1 8 C-1.99 8 -2.98 8 -4 8 C-3.50168276 4.31245243 -2.89932357 2.39509338 0 0 Z " fill="#373B50" transform="translate(588,552)"/>
<path d="M0 0 C0.33 0 0.66 0 1 0 C2.25 7.625 2.25 7.625 0 11 C-0.39013716 12.9896995 -0.73202649 14.99019869 -1 17 C-1.33 17 -1.66 17 -2 17 C-2.21824777 10.9981863 -1.5056904 5.80766296 0 0 Z " fill="#343B50" transform="translate(324,253)"/>
<path d="M0 0 C1.32 0.66 2.64 1.32 4 2 C4 2.66 4 3.32 4 4 C-1.28 4 -6.56 4 -12 4 C-12 3.67 -12 3.34 -12 3 C-10.95199219 2.92652344 -10.95199219 2.92652344 -9.8828125 2.8515625 C-8.97273438 2.77679688 -8.06265625 2.70203125 -7.125 2.625 C-6.22007813 2.55539063 -5.31515625 2.48578125 -4.3828125 2.4140625 C-1.82058097 2.20431868 -1.82058097 2.20431868 0 0 Z " fill="#343B4E" transform="translate(1132,226)"/>
<path d="M0 0 C2.97 0.33 5.94 0.66 9 1 C7 4 7 4 5.0546875 4.51171875 C4.33539063 4.56972656 3.61609375 4.62773437 2.875 4.6875 C0.956875 4.8421875 0.956875 4.8421875 -1 5 C-0.67 3.35 -0.34 1.7 0 0 Z " fill="#293242" transform="translate(269,225)"/>
<path d="M0 0 C0 3.61537605 -0.89229241 5.11165997 -3 8 C-3.99 8 -4.98 8 -6 8 C-5.67 7.34 -5.34 6.68 -5 6 C-5.66 5.67 -6.32 5.34 -7 5 C-4.69 3.35 -2.38 1.7 0 0 Z " fill="#31394E" transform="translate(566,588)"/>
<path d="M0 0 C1.31611677 0.95336021 2.62778961 1.91285774 3.9375 2.875 C4.66839844 3.40867187 5.39929688 3.94234375 6.15234375 4.4921875 C8 6 8 6 9 8 C7.68 8 6.36 8 5 8 C5 7.34 5 6.68 5 6 C3.68 5.67 2.36 5.34 1 5 C0.67 3.35 0.34 1.7 0 0 Z " fill="#343C50" transform="translate(248,588)"/>
<path d="M0 0 C4.875 4.625 4.875 4.625 6 8 C4.35 8 2.7 8 1 8 C0.67 5.36 0.34 2.72 0 0 Z " fill="#373B4A" transform="translate(363,581)"/>
<path d="M0 0 C0.33 0 0.66 0 1 0 C1.36923077 6.4 1.36923077 6.4 -0.5 9.4375 C-0.995 9.953125 -1.49 10.46875 -2 11 C-2 10.01 -2 9.02 -2 8 C-2.66 7.67 -3.32 7.34 -4 7 C-2.68 4.69 -1.36 2.38 0 0 Z " fill="#313A4B" transform="translate(1038,570)"/>
<path d="M0 0 C0.33 0 0.66 0 1 0 C1.33 1.65 1.66 3.3 2 5 C2.99 4.01 3.98 3.02 5 2 C4.67 4.31 4.34 6.62 4 9 C2.68 8.67 1.36 8.34 0 8 C0 5.36 0 2.72 0 0 Z " fill="#313A52" transform="translate(320,578)"/>
<path d="M0 0 C2 2 2 2 2.25 4.4375 C2 7 2 7 0 10 C-0.66 10 -1.32 10 -2 10 C-1.34 6.7 -0.68 3.4 0 0 Z " fill="#3B4156" transform="translate(1164,388)"/>
<path d="M0 0 C1.98 0.495 1.98 0.495 4 1 C2.02 5.455 2.02 5.455 0 10 C-1.231394 6.30581799 -0.64432764 3.7943739 0 0 Z " fill="#E3E7EC" transform="translate(387,272)"/>
<path d="M0 0 C0 2.97 0 5.94 0 9 C-0.33 9 -0.66 9 -1 9 C-1 6.69 -1 4.38 -1 2 C-1.8971875 2.309375 -1.8971875 2.309375 -2.8125 2.625 C-5 3 -5 3 -8 1 C-5.07175348 0.02391783 -3.04386724 -0.08226668 0 0 Z " fill="#1E2837" transform="translate(291,267)"/>
<path d="M0 0 C0.33 1.32 0.66 2.64 1 4 C-3.26826873 4 -3.93882432 3.62386487 -7 1 C-4.53721199 -0.231394 -2.7204945 -0.07159196 0 0 Z " fill="#E2E8EC" transform="translate(1127,264)"/>
<path d="M0 0 C2 3 2 3 1.875 5.0625 C1 7 1 7 -3 9 C-2.01 6.03 -1.02 3.06 0 0 Z " fill="#44495B" transform="translate(1161,398)"/>
<path d="M0 0 C0.66 0 1.32 0 2 0 C0.66666667 3.33333333 -0.66666667 6.66666667 -2 10 C-2.66 8.68 -3.32 7.36 -4 6 C-2.7260411 3.96166576 -1.38938077 1.96147874 0 0 Z " fill="#363E4F" transform="translate(392,271)"/>
<path d="M0 0 C0.66 0 1.32 0 2 0 C1.01 3.96 0.02 7.92 -1 12 C-1.33 12 -1.66 12 -2 12 C-2.17835515 7.45194365 -1.99785435 4.1205746 0 0 Z " fill="#3B4051" transform="translate(353,264)"/>
<path d="M0 0 C2 0.66666667 4 1.33333333 6 2 C6 2.99 6 3.98 6 5 C2.7 4.34 -0.6 3.68 -4 3 C-2.68 2.67 -1.36 2.34 0 2 C0 1.34 0 0.68 0 0 Z " fill="#3B4152" transform="translate(548,228)"/>
<path d="M0 0 C-0.66 0 -1.32 0 -2 0 C-2 0.66 -2 1.32 -2 2 C-3.65 2.33 -5.3 2.66 -7 3 C-7 2.34 -7 1.68 -7 1 C-7.99 0.67 -8.98 0.34 -10 0 C-6.33694766 -0.74926071 -3.57644848 -1.2380014 0 0 Z " fill="#3A4153" transform="translate(308,603)"/>
<path d="M0 0 C2 0.66666667 4 1.33333333 6 2 C5.67 2.66 5.34 3.32 5 4 C4.01 4.33 3.02 4.66 2 5 C2 4.34 2 3.68 2 3 C0.35 3.33 -1.3 3.66 -3 4 C-2.01 2.68 -1.02 1.36 0 0 Z " fill="#30354E" transform="translate(570,584)"/>
<path d="M0 0 C0.33 0 0.66 0 1 0 C0.67 2.31 0.34 4.62 0 7 C-1.65 7.66 -3.3 8.32 -5 9 C-3.35 6.03 -1.7 3.06 0 0 Z " fill="#333A4C" transform="translate(579,571)"/>
<path d="M0 0 C0.99 0.99 1.98 1.98 3 3 C2 5 2 5 -1 7 C-1.33 5.02 -1.66 3.04 -2 1 C-1.34 0.67 -0.68 0.34 0 0 Z " fill="#383F53" transform="translate(234,568)"/>
<path d="M0 0 C1.625 1.625 1.625 1.625 3 4 C2.3125 7.1875 2.3125 7.1875 1 10 C0.01 10.495 0.01 10.495 -1 11 C-1 9.35 -1 7.7 -1 6 C-0.34 6 0.32 6 1 6 C0.67 4.02 0.34 2.04 0 0 Z " fill="#293141" transform="translate(1002,547)"/>
<path d="M0 0 C0.33 0 0.66 0 1 0 C0.67 3.96 0.34 7.92 0 12 C-3 8 -3 8 -2.8125 6 C-1.97420791 3.93651179 -1.05172193 1.96321426 0 0 Z " fill="#C4CACE" transform="translate(463,541)"/>
<path d="M0 0 C2.72727273 4.09090909 2.72727273 4.09090909 3 7 C1.5625 8.75 1.5625 8.75 0 10 C0.33 8.68 0.66 7.36 1 6 C0.34 6 -0.32 6 -1 6 C-0.67 4.02 -0.34 2.04 0 0 Z " fill="#384152" transform="translate(354,563)"/>
<path d="M0 0 C0 1.65 0 3.3 0 5 C-2.875 4.6875 -2.875 4.6875 -6 4 C-6.66 3.01 -7.32 2.02 -8 1 C-7.01 1 -6.02 1 -5 1 C-5 1.66 -5 2.32 -5 3 C-4.360625 2.505 -3.72125 2.01 -3.0625 1.5 C-1 0 -1 0 0 0 Z " fill="#1A283F" transform="translate(1001,553)"/>
<path d="M0 0 C1.65 0 3.3 0 5 0 C4.67 0.99 4.34 1.98 4 3 C2.02 3 0.04 3 -2 3 C-1.34 2.67 -0.68 2.34 0 2 C0 1.34 0 0.68 0 0 Z M-4 3 C-2 4 -2 4 -2 4 Z " fill="#2A3142" transform="translate(312,601)"/>
<path d="M0 0 C0.33 0 0.66 0 1 0 C1.33 3.96 1.66 7.92 2 12 C1.01 11.67 0.02 11.34 -1 11 C-0.67 7.37 -0.34 3.74 0 0 Z " fill="#D8DCE3" transform="translate(261,528)"/>
<path d="M0 0 C0 2.83967231 -0.40267181 5.23735711 -1 8 C-1.99 7.67 -2.98 7.34 -4 7 C-4 5.02 -4 3.04 -4 1 C-2.68 0.67 -1.36 0.34 0 0 Z " fill="#1B2640" transform="translate(1125,385)"/>
<path d="M0 0 C0.99 0.33 1.98 0.66 3 1 C2.01 2.32 1.02 3.64 0 5 C-1.32 4.34 -2.64 3.68 -4 3 C-2.1875 1.4375 -2.1875 1.4375 0 0 Z " fill="#E1E5EB" transform="translate(1146,417)"/>
<path d="M0 0 C0.1875 2.375 0.1875 2.375 0 5 C-0.99 5.66 -1.98 6.32 -3 7 C-3.6875 5.1875 -3.6875 5.1875 -4 3 C-1.64285714 0 -1.64285714 0 0 0 Z " fill="#2C344A" transform="translate(1127,386)"/>
<path d="M0 0 C0.99 0.33 1.98 0.66 3 1 C2.34 3.31 1.68 5.62 1 8 C0.01 8 -0.98 8 -2 8 C-1.34 7.67 -0.68 7.34 0 7 C-0.33 6.01 -0.66 5.02 -1 4 C-0.5625 1.8125 -0.5625 1.8125 0 0 Z " fill="#2F3850" transform="translate(546,271)"/>
</svg>
